<svg width="26" height="20" viewBox="0 0 26 20" fill="none" xmlns="http://www.w3.org/2000/svg"><path fill-rule="evenodd" clip-rule="evenodd" d="M24.0003 18H7.78325L2.21825 10L7.78325 2H24.0003V18ZM25.0003 0H7.26125C6.93425 0 6.62725 0.16 6.44025 0.429L0.17925 9.429C-0.05975 9.772 -0.05975 10.228 0.17925 10.571L6.44025 19.571C6.62725 19.84 6.93425 20 7.26125 20H25.0003C25.5523 20 26.0003 19.552 26.0003 19V1C26.0003 0.448 25.5523 0 25.0003 0ZM10.7932 13.957C10.9882 14.152 11.2443 14.25 11.5002 14.25C11.7562 14.25 12.0123 14.152 12.2073 13.957L14.7502 11.414L17.2932 13.957C17.4882 14.152 17.7442 14.25 18.0002 14.25C18.2563 14.25 18.5123 14.152 18.7073 13.957C19.0983 13.566 19.0983 12.934 18.7073 12.543L16.1642 10L18.7073 7.457C19.0983 7.066 19.0983 6.434 18.7073 6.043C18.3162 5.652 17.6842 5.652 17.2932 6.043L14.7502 8.586L12.2073 6.043C11.8163 5.652 11.1842 5.652 10.7932 6.043C10.4022 6.434 10.4022 7.066 10.7932 7.457L13.3363 10L10.7932 12.543C10.4022 12.934 10.4022 13.566 10.7932 13.957Z" fill="white"/></svg>
