<svg width="20" height="20" viewBox="0 0 20 20" fill="none" xmlns="http://www.w3.org/2000/svg"><path d="M16.3473 13.4613L14.1323 15.8363C14.0844 15.8878 14.0264 15.929 13.9619 15.9572C13.8973 15.9854 13.8277 15.9999 13.7573 16H3.25735C3.20728 16 3.15829 15.9853 3.1164 15.9579C3.07451 15.9305 3.04153 15.8914 3.0215 15.8455C3.00146 15.7996 2.99525 15.7489 3.00362 15.6995C3.01199 15.6501 3.03457 15.6042 3.0686 15.5675L5.2811 13.1925C5.32901 13.1409 5.38702 13.0998 5.45154 13.0716C5.51606 13.0434 5.58569 13.0288 5.65609 13.0288H16.1561C16.2066 13.0277 16.2563 13.0416 16.2989 13.0688C16.3416 13.0959 16.3753 13.1351 16.3957 13.1813C16.4162 13.2276 16.4224 13.2788 16.4138 13.3286C16.4052 13.3784 16.3821 13.4246 16.3473 13.4613ZM14.1323 8.67753C14.0842 8.62618 14.0262 8.58518 13.9617 8.55702C13.8972 8.52887 13.8277 8.51416 13.7573 8.51379H3.25735C3.20728 8.51382 3.15829 8.52844 3.1164 8.55589C3.07451 8.58333 3.04153 8.62239 3.0215 8.66829C3.00146 8.71419 2.99525 8.76493 3.00362 8.8143C3.01199 8.86368 3.03457 8.90955 3.0686 8.94629L5.2811 11.3225C5.32918 11.3739 5.38725 11.4149 5.45172 11.443C5.51619 11.4712 5.58574 11.4859 5.65609 11.4863H16.1561C16.2061 11.486 16.2548 11.4712 16.2966 11.4437C16.3383 11.4161 16.3711 11.3771 16.3909 11.3312C16.4108 11.2854 16.4169 11.2347 16.4084 11.1854C16.4001 11.1362 16.3776 11.0904 16.3436 11.0538L14.1323 8.67753ZM3.25735 6.97129H13.7573C13.8277 6.97122 13.8973 6.95664 13.9619 6.92846C14.0264 6.9003 14.0844 6.85912 14.1323 6.80754L16.3473 4.43255C16.3821 4.39587 16.4052 4.34972 16.4138 4.29991C16.4224 4.2501 16.4162 4.19885 16.3957 4.15262C16.3753 4.10638 16.3416 4.06723 16.2989 4.04009C16.2563 4.01294 16.2066 3.99901 16.1561 4.00005H5.65609C5.58569 4.00013 5.51606 4.01471 5.45154 4.04288C5.38702 4.07105 5.32901 4.11222 5.2811 4.1638L3.0686 6.53879C3.03457 6.57553 3.01199 6.6214 3.00362 6.67078C2.99525 6.72015 3.00146 6.77089 3.0215 6.81679C3.04153 6.86269 3.07451 6.90175 3.1164 6.92919C3.15829 6.95664 3.20728 6.97126 3.25735 6.97129Z" fill="#5B5B5B"/></svg>
