<svg width="20" height="20" viewBox="0 0 20 20" fill="none" xmlns="http://www.w3.org/2000/svg"><g clip-path="url(#clip0_1_10033)"><path fill-rule="evenodd" clip-rule="evenodd" d="M7.79584 2.5C7.79584 2.15482 8.07566 1.875 8.42084 1.875H10H11.5833C11.9285 1.875 12.2083 2.15482 12.2083 2.5C12.2083 2.84518 11.9285 3.125 11.5833 3.125H10.625V4.86833C10.625 4.87864 10.6248 4.8889 10.6243 4.89909C11.6529 5.00125 12.6442 5.35475 13.5089 5.93257C14.5476 6.62657 15.3571 7.61297 15.8351 8.76703C16.3131 9.9211 16.4382 11.191 16.1945 12.4162C15.9508 13.6413 15.3493 14.7667 14.466 15.65C13.5827 16.5333 12.4573 17.1348 11.2322 17.3785C10.007 17.6222 8.73714 17.4971 7.58307 17.0191C6.429 16.541 5.44261 15.7315 4.74861 14.6929C4.05462 13.6543 3.6842 12.4332 3.6842 11.184C3.6842 9.50893 4.34962 7.90248 5.53407 6.71803C6.57045 5.68164 7.92993 5.04264 9.37576 4.89907C9.37527 4.88889 9.37502 4.87864 9.37502 4.86833V3.125H8.42084C8.07566 3.125 7.79584 2.84518 7.79584 2.5ZM16.1328 3.80122C15.8887 3.55714 15.493 3.55714 15.2489 3.80122C15.0048 4.0453 15.0048 4.44103 15.2489 4.68511L16.4989 5.93511C16.743 6.17918 17.1387 6.17918 17.3828 5.93511C17.6269 5.69103 17.6269 5.2953 17.3828 5.05122L16.1328 3.80122ZM4.75115 3.80122C4.99522 4.0453 4.99522 4.44103 4.75115 4.68511L3.50115 5.93511C3.25707 6.17918 2.86134 6.17918 2.61726 5.93511C2.37318 5.69103 2.37318 5.2953 2.61726 5.05122L3.24211 4.42637L3.86726 3.80122C4.11134 3.55714 4.50707 3.55714 4.75115 3.80122ZM7.64032 8.73006C7.88145 8.48307 8.27715 8.47832 8.52414 8.71945L10.3795 10.5308H12.7792C13.1244 10.5308 13.4042 10.8107 13.4042 11.1558C13.4042 11.501 13.1244 11.7808 12.7792 11.7808H10.125C9.96187 11.7808 9.80518 11.717 9.68843 11.603L7.65093 9.61388C7.40394 9.37275 7.39919 8.97705 7.64032 8.73006Z" fill="#FB593B"/></g><defs><clipPath id="clip0_1_10033"><rect width="20" height="20" fill="white"/></clipPath></defs></svg>
