<svg width="13" height="18" viewBox="0 0 13 18" fill="none" xmlns="http://www.w3.org/2000/svg"><path fill-rule="evenodd" clip-rule="evenodd" d="M5 0C3.89543 0 3 0.89543 3 2V2.17071C1.83481 2.58254 1 3.69378 1 5V6.13378C0.701099 6.30669 0.5 6.62986 0.5 7V8C0.5 8.37014 0.701099 8.69331 1 8.86622V13C1 14.3062 1.83481 15.4175 3 15.8293V16C3 17.1046 3.89543 18 5 18H9C10.1046 18 11 17.1046 11 16V15.8293C12.1652 15.4175 13 14.3062 13 13V5C13 3.69378 12.1652 2.58254 11 2.17071V2C11 0.895431 10.1046 0 9 0H5ZM4.25 3.25C3.14543 3.25 2.25 4.14543 2.25 5.25V12.75C2.25 13.8546 3.14543 14.75 4.25 14.75H9.75C10.8546 14.75 11.75 13.8546 11.75 12.75V5.25C11.75 4.14543 10.8546 3.25 9.75 3.25H4.25Z" fill="url(#paint0_linear_369_31001)"/><defs><linearGradient id="paint0_linear_369_31001" x1="-5.75" y1="-43.5" x2="19.833" y2="24.5501" gradientUnits="userSpaceOnUse"><stop stop-color="white"/><stop offset="1" stop-color="white" stop-opacity="0"/></linearGradient></defs></svg>
