<svg width="24" height="24" viewBox="0 0 24 24" fill="none" xmlns="http://www.w3.org/2000/svg"><g clip-path="url(#clip0_344_195649)"><path fill-rule="evenodd" clip-rule="evenodd" d="M9.35486 3C9.35486 2.58579 9.69064 2.25 10.1049 2.25H11.9999H13.8999C14.3141 2.25 14.6499 2.58579 14.6499 3C14.6499 3.41421 14.3141 3.75 13.8999 3.75H12.7499V5.842C12.7499 5.85437 12.7496 5.86668 12.749 5.8789C13.9833 6.0015 15.1728 6.42571 16.2106 7.11909C17.4569 7.95188 18.4283 9.13556 19.002 10.5204C19.5756 11.9053 19.7257 13.4292 19.4333 14.8994C19.1408 16.3696 18.419 17.72 17.3591 18.78C16.2991 19.8399 14.9487 20.5617 13.4785 20.8542C12.0083 21.1466 10.4844 20.9965 9.09954 20.4229C7.71466 19.8492 6.53098 18.8778 5.69819 17.6315C4.8654 16.3851 4.4209 14.9198 4.4209 13.4208C4.4209 11.4107 5.2194 9.48297 6.64074 8.06164C7.8844 6.81797 9.51577 6.05116 11.2508 5.87889C11.2502 5.86667 11.2499 5.85437 11.2499 5.842V3.75H10.1049C9.69064 3.75 9.35486 3.41421 9.35486 3ZM19.3592 4.56147C19.0663 4.26857 18.5914 4.26857 18.2985 4.56147C18.0056 4.85436 18.0056 5.32923 18.2985 5.62213L19.7985 7.12213C20.0914 7.41502 20.5663 7.41502 20.8592 7.12213C21.1521 6.82923 21.1521 6.35436 20.8592 6.06147L19.3592 4.56147ZM5.70123 4.56147C5.99412 4.85436 5.99412 5.32923 5.70123 5.62213L4.20123 7.12213C3.90834 7.41502 3.43346 7.41502 3.14057 7.12213C2.84768 6.82923 2.84768 6.35436 3.14057 6.06147L3.89039 5.31165L4.64057 4.56147C4.93346 4.26857 5.40834 4.26857 5.70123 4.56147ZM9.16824 10.4761C9.45759 10.1797 9.93243 10.174 10.2288 10.4633L12.4553 12.637H15.3349C15.7491 12.637 16.0849 12.9728 16.0849 13.387C16.0849 13.8012 15.7491 14.137 15.3349 14.137H12.1499C11.9541 14.137 11.7661 14.0604 11.626 13.9237L9.18097 11.5367C8.88458 11.2473 8.87888 10.7725 9.16824 10.4761Z" fill="url(#paint0_linear_344_195649)"/></g><defs><linearGradient id="paint0_linear_344_195649" x1="-6.15808" y1="-43.062" x2="14.1743" y2="32.3599" gradientUnits="userSpaceOnUse"><stop stop-color="white"/><stop offset="1" stop-color="white" stop-opacity="0"/></linearGradient><clipPath id="clip0_344_195649"><rect width="24" height="24" fill="white"/></clipPath></defs></svg>
