<svg width="24" height="24" viewBox="0 0 24 24" fill="none" xmlns="http://www.w3.org/2000/svg"><path d="M16 9V7C16 4.791 14.209 3 12 3C9.791 3 8 4.791 8 7V9" stroke="#FB593B" stroke-width="1.4031" stroke-miterlimit="10" stroke-linecap="round" stroke-linejoin="round"/><path fill-rule="evenodd" clip-rule="evenodd" d="M7 21H17C18.105 21 19 20.105 19 19V11C19 9.895 18.105 9 17 9H7C5.895 9 5 9.895 5 11V19C5 20.105 5.895 21 7 21ZM10.0001 15C9.98812 13.9 10.8881 13 11.9881 13C13.1 13 14 13.9 14 15C14 16.1 13.1 17 12.0001 17C10.9001 17 10.0001 16.1 10.0001 15Z" fill="#FB593B"/></svg>
