<svg width="24" height="24" viewBox="0 0 24 24" fill="none" xmlns="http://www.w3.org/2000/svg"><g clip-path="url(#clip0_344_195674)"><path fill-rule="evenodd" clip-rule="evenodd" d="M3 12C3 16.971 7.029 21 12 21C16.971 21 21 16.971 21 12C21 7.029 16.971 3 12 3C7.029 3 3 7.029 3 12ZM11.996 7C11.444 7 10.996 7.448 11 8C11 8.552 11.448 9 12 9C12.552 9 13 8.552 13 8C13 7.448 12.552 7 11.996 7ZM10.25 11C10.25 10.5858 10.5858 10.25 11 10.25H12C12.4142 10.25 12.75 10.5858 12.75 11V16C12.75 16.4142 12.4142 16.75 12 16.75C11.5858 16.75 11.25 16.4142 11.25 16V11.75H11C10.5858 11.75 10.25 11.4142 10.25 11Z" fill="url(#paint0_linear_344_195674)"/></g><defs><linearGradient id="paint0_linear_344_195674" x1="-6" y1="-40.5" x2="12.9831" y2="32.2119" gradientUnits="userSpaceOnUse"><stop stop-color="white"/><stop offset="1" stop-color="white" stop-opacity="0"/></linearGradient><clipPath id="clip0_344_195674"><rect width="24" height="24" fill="white"/></clipPath></defs></svg>
