<svg width="44" height="44" viewBox="0 0 44 44" fill="none" xmlns="http://www.w3.org/2000/svg"><circle cx="22" cy="22" r="22" fill="#313131"/><path fill-rule="evenodd" clip-rule="evenodd" d="M22.001 30.25C21.5868 30.25 21.251 29.9142 21.251 29.5L21.251 19.6435L18.3641 22.5303C18.0712 22.8232 17.5964 22.8232 17.3035 22.5303C17.0106 22.2374 17.0106 21.7626 17.3035 21.4697L21.471 17.3022C21.6116 17.1615 21.8024 17.0825 22.0013 17.0825C22.2003 17.0825 22.391 17.1615 22.5317 17.3022L26.6984 21.4697C26.9912 21.7626 26.9912 22.2375 26.6982 22.5304C26.4053 22.8232 25.9305 22.8232 25.6376 22.5303L22.751 19.6431L22.751 29.5C22.751 29.9142 22.4152 30.25 22.001 30.25ZM28.667 15.25C29.0812 15.25 29.417 14.9142 29.417 14.5C29.417 14.0858 29.0812 13.75 28.667 13.75L15.3337 13.75C14.9194 13.75 14.5837 14.0858 14.5837 14.5C14.5837 14.9142 14.9194 15.25 15.3337 15.25L28.667 15.25Z" fill="url(#paint0_linear_344_174490)"/><defs><linearGradient id="paint0_linear_344_174490" x1="36.8337" y1="70.125" x2="17.7661" y2="4.46682" gradientUnits="userSpaceOnUse"><stop stop-color="white"/><stop offset="1" stop-color="white" stop-opacity="0"/></linearGradient></defs></svg>
