<svg width="20" height="20" viewBox="0 0 20 20" fill="none" xmlns="http://www.w3.org/2000/svg"><g clip-path="url(#clip0_344_175278)"><path d="M15.833 5.8335H7.49967C6.5792 5.8335 5.83301 6.57969 5.83301 7.50016V15.8335C5.83301 16.754 6.5792 17.5002 7.49967 17.5002H15.833C16.7535 17.5002 17.4997 16.754 17.4997 15.8335V7.50016C17.4997 6.57969 16.7535 5.8335 15.833 5.8335Z" stroke="white" stroke-width="1.5" stroke-linecap="round" stroke-linejoin="round"/><path d="M5.83333 14.1667H4.16667C3.72464 14.1667 3.30072 13.9911 2.98816 13.6785C2.67559 13.366 2.5 12.942 2.5 12.5V4.16667C2.5 3.72464 2.67559 3.30072 2.98816 2.98816C3.30072 2.67559 3.72464 2.5 4.16667 2.5H12.5C12.942 2.5 13.366 2.67559 13.6785 2.98816C13.9911 3.30072 14.1667 3.72464 14.1667 4.16667V5.83333" stroke="white" stroke-width="1.5" stroke-linecap="round" stroke-linejoin="round"/></g><defs><clipPath id="clip0_344_175278"><rect width="20" height="20" fill="white"/></clipPath></defs></svg>
