<svg width="220" height="220" viewBox="0 0 220 220" fill="none" xmlns="http://www.w3.org/2000/svg">
<g clip-path="url(#clip0_344_176033)">
<path d="M220 0H0V220H220V0Z" fill="#242424"/>
<path d="M8.8 0H4C1.79086 0 0 1.79086 0 4V8.8H8.8V0Z" fill="white"/>
<path d="M17.5998 0H8.7998V8.8H17.5998V0Z" fill="white"/>
<path d="M26.3996 0H17.5996V8.8H26.3996V0Z" fill="white"/>
<path d="M35.2004 0H26.4004V8.8H35.2004V0Z" fill="white"/>
<path d="M44.0002 0H35.2002V8.8H44.0002V0Z" fill="white"/>
<path d="M52.8 0H44V8.8H52.8V0Z" fill="white"/>
<path d="M61.5998 0H52.7998V8.8H61.5998V0Z" fill="white"/>
<path d="M96.8 0H88V8.8H96.8V0Z" fill="white"/>
<path d="M105.6 0H96.7998V8.8H105.6V0Z" fill="white"/>
<path d="M114.4 0H105.6V8.8H114.4V0Z" fill="white"/>
<path d="M123.2 0H114.4V8.8H123.2V0Z" fill="white"/>
<path d="M132 0H123.2V8.8H132V0Z" fill="white"/>
<path d="M167.2 0H158.4V8.8H167.2V0Z" fill="white"/>
<path d="M176 0H167.2V8.8H176V0Z" fill="white"/>
<path d="M184.8 0H176V8.8H184.8V0Z" fill="white"/>
<path d="M193.6 0H184.8V8.8H193.6V0Z" fill="white"/>
<path d="M202.4 0H193.6V8.8H202.4V0Z" fill="white"/>
<path d="M211.2 0H202.4V8.8H211.2V0Z" fill="white"/>
<path d="M216 0H211.2V8.8H220V4C220 1.79086 218.209 0 216 0Z" fill="white"/>
<path d="M8.8 8.7998H0V17.5998H8.8V8.7998Z" fill="white"/>
<path d="M61.5998 8.7998H52.7998V17.5998H61.5998V8.7998Z" fill="white"/>
<path d="M79.2004 8.7998H70.4004V17.5998H79.2004V8.7998Z" fill="white"/>
<path d="M167.2 8.7998H158.4V17.5998H167.2V8.7998Z" fill="white"/>
<path d="M220 8.7998H211.2V17.5998H220V8.7998Z" fill="white"/>
<path d="M8.8 17.6001H0V26.4001H8.8V17.6001Z" fill="white"/>
<path d="M26.3996 17.6001H17.5996V26.4001H26.3996V17.6001Z" fill="white"/>
<path d="M35.2004 17.6001H26.4004V26.4001H35.2004V17.6001Z" fill="white"/>
<path d="M44.0002 17.6001H35.2002V26.4001H44.0002V17.6001Z" fill="white"/>
<path d="M61.5998 17.6001H52.7998V26.4001H61.5998V17.6001Z" fill="white"/>
<path d="M88.0002 17.6001H79.2002V26.4001H88.0002V17.6001Z" fill="white"/>
<path d="M114.4 17.6001H105.6V26.4001H114.4V17.6001Z" fill="white"/>
<path d="M132 17.6001H123.2V26.4001H132V17.6001Z" fill="white"/>
<path d="M140.8 17.6001H132V26.4001H140.8V17.6001Z" fill="white"/>
<path d="M149.6 17.6001H140.8V26.4001H149.6V17.6001Z" fill="white"/>
<path d="M167.2 17.6001H158.4V26.4001H167.2V17.6001Z" fill="white"/>
<path d="M184.8 17.6001H176V26.4001H184.8V17.6001Z" fill="white"/>
<path d="M193.6 17.6001H184.8V26.4001H193.6V17.6001Z" fill="white"/>
<path d="M202.4 17.6001H193.6V26.4001H202.4V17.6001Z" fill="white"/>
<path d="M220 17.6001H211.2V26.4001H220V17.6001Z" fill="white"/>
<path d="M8.8 26.3999H0V35.1999H8.8V26.3999Z" fill="white"/>
<path d="M26.3996 26.3999H17.5996V35.1999H26.3996V26.3999Z" fill="white"/>
<path d="M35.2004 26.3999H26.4004V35.1999H35.2004V26.3999Z" fill="white"/>
<path d="M44.0002 26.3999H35.2002V35.1999H44.0002V26.3999Z" fill="white"/>
<path d="M61.5998 26.3999H52.7998V35.1999H61.5998V26.3999Z" fill="white"/>
<path d="M96.8 26.3999H88V35.1999H96.8V26.3999Z" fill="white"/>
<path d="M105.6 26.3999H96.7998V35.1999H105.6V26.3999Z" fill="white"/>
<path d="M123.2 26.3999H114.4V35.1999H123.2V26.3999Z" fill="white"/>
<path d="M140.8 26.3999H132V35.1999H140.8V26.3999Z" fill="white"/>
<path d="M149.6 26.3999H140.8V35.1999H149.6V26.3999Z" fill="white"/>
<path d="M167.2 26.3999H158.4V35.1999H167.2V26.3999Z" fill="white"/>
<path d="M184.8 26.3999H176V35.1999H184.8V26.3999Z" fill="white"/>
<path d="M193.6 26.3999H184.8V35.1999H193.6V26.3999Z" fill="white"/>
<path d="M202.4 26.3999H193.6V35.1999H202.4V26.3999Z" fill="white"/>
<path d="M220 26.3999H211.2V35.1999H220V26.3999Z" fill="white"/>
<path d="M8.8 35.2002H0V44.0002H8.8V35.2002Z" fill="white"/>
<path d="M26.3996 35.2002H17.5996V44.0002H26.3996V35.2002Z" fill="white"/>
<path d="M35.2004 35.2002H26.4004V44.0002H35.2004V35.2002Z" fill="white"/>
<path d="M44.0002 35.2002H35.2002V44.0002H44.0002V35.2002Z" fill="white"/>
<path d="M61.5998 35.2002H52.7998V44.0002H61.5998V35.2002Z" fill="white"/>
<path d="M88.0002 35.2002H79.2002V44.0002H88.0002V35.2002Z" fill="white"/>
<path d="M105.6 35.2002H96.7998V44.0002H105.6V35.2002Z" fill="white"/>
<path d="M123.2 35.2002H114.4V44.0002H123.2V35.2002Z" fill="white"/>
<path d="M132 35.2002H123.2V44.0002H132V35.2002Z" fill="white"/>
<path d="M140.8 35.2002H132V44.0002H140.8V35.2002Z" fill="white"/>
<path d="M149.6 35.2002H140.8V44.0002H149.6V35.2002Z" fill="white"/>
<path d="M167.2 35.2002H158.4V44.0002H167.2V35.2002Z" fill="white"/>
<path d="M184.8 35.2002H176V44.0002H184.8V35.2002Z" fill="white"/>
<path d="M193.6 35.2002H184.8V44.0002H193.6V35.2002Z" fill="white"/>
<path d="M202.4 35.2002H193.6V44.0002H202.4V35.2002Z" fill="white"/>
<path d="M220 35.2002H211.2V44.0002H220V35.2002Z" fill="white"/>
<path d="M8.8 44H0V52.8H8.8V44Z" fill="white"/>
<path d="M61.5998 44H52.7998V52.8H61.5998V44Z" fill="white"/>
<path d="M79.2004 44H70.4004V52.8H79.2004V44Z" fill="white"/>
<path d="M96.8 44H88V52.8H96.8V44Z" fill="white"/>
<path d="M105.6 44H96.7998V52.8H105.6V44Z" fill="white"/>
<path d="M132 44H123.2V52.8H132V44Z" fill="white"/>
<path d="M140.8 44H132V52.8H140.8V44Z" fill="white"/>
<path d="M149.6 44H140.8V52.8H149.6V44Z" fill="white"/>
<path d="M167.2 44H158.4V52.8H167.2V44Z" fill="white"/>
<path d="M220 44H211.2V52.8H220V44Z" fill="white"/>
<path d="M8.8 52.7998H0V61.5998H8.8V52.7998Z" fill="white"/>
<path d="M17.5998 52.7998H8.7998V61.5998H17.5998V52.7998Z" fill="white"/>
<path d="M26.3996 52.7998H17.5996V61.5998H26.3996V52.7998Z" fill="white"/>
<path d="M35.2004 52.7998H26.4004V61.5998H35.2004V52.7998Z" fill="white"/>
<path d="M44.0002 52.7998H35.2002V61.5998H44.0002V52.7998Z" fill="white"/>
<path d="M52.8 52.7998H44V61.5998H52.8V52.7998Z" fill="white"/>
<path d="M61.5998 52.7998H52.7998V61.5998H61.5998V52.7998Z" fill="white"/>
<path d="M79.2004 52.7998H70.4004V61.5998H79.2004V52.7998Z" fill="white"/>
<path d="M96.8 52.7998H88V61.5998H96.8V52.7998Z" fill="white"/>
<path d="M114.4 52.7998H105.6V61.5998H114.4V52.7998Z" fill="white"/>
<path d="M132 52.7998H123.2V61.5998H132V52.7998Z" fill="white"/>
<path d="M149.6 52.7998H140.8V61.5998H149.6V52.7998Z" fill="white"/>
<path d="M167.2 52.7998H158.4V61.5998H167.2V52.7998Z" fill="white"/>
<path d="M176 52.7998H167.2V61.5998H176V52.7998Z" fill="white"/>
<path d="M184.8 52.7998H176V61.5998H184.8V52.7998Z" fill="white"/>
<path d="M193.6 52.7998H184.8V61.5998H193.6V52.7998Z" fill="white"/>
<path d="M202.4 52.7998H193.6V61.5998H202.4V52.7998Z" fill="white"/>
<path d="M211.2 52.7998H202.4V61.5998H211.2V52.7998Z" fill="white"/>
<path d="M220 52.7998H211.2V61.5998H220V52.7998Z" fill="white"/>
<path d="M79.2004 61.6001H70.4004V70.4001H79.2004V61.6001Z" fill="white"/>
<path d="M114.4 61.6001H105.6V70.4001H114.4V61.6001Z" fill="white"/>
<path d="M132 61.6001H123.2V70.4001H132V61.6001Z" fill="white"/>
<path d="M140.8 61.6001H132V70.4001H140.8V61.6001Z" fill="white"/>
<path d="M149.6 61.6001H140.8V70.4001H149.6V61.6001Z" fill="white"/>
<path d="M44.0002 70.3999H35.2002V79.1999H44.0002V70.3999Z" fill="white"/>
<path d="M52.8 70.3999H44V79.1999H52.8V70.3999Z" fill="white"/>
<path d="M61.5998 70.3999H52.7998V79.1999H61.5998V70.3999Z" fill="white"/>
<path d="M70.3996 70.3999H61.5996V79.1999H70.3996V70.3999Z" fill="white"/>
<path d="M96.8 70.3999H88V79.1999H96.8V70.3999Z" fill="white"/>
<path d="M123.2 70.3999H114.4V79.1999H123.2V70.3999Z" fill="white"/>
<path d="M132 70.3999H123.2V79.1999H132V70.3999Z" fill="white"/>
<path d="M140.8 70.3999H132V79.1999H140.8V70.3999Z" fill="white"/>
<path d="M149.6 70.3999H140.8V79.1999H149.6V70.3999Z" fill="white"/>
<path d="M167.2 70.3999H158.4V79.1999H167.2V70.3999Z" fill="white"/>
<path d="M176 70.3999H167.2V79.1999H176V70.3999Z" fill="white"/>
<path d="M211.2 70.3999H202.4V79.1999H211.2V70.3999Z" fill="white"/>
<path d="M26.3996 79.2002H17.5996V88.0002H26.3996V79.2002Z" fill="white"/>
<path d="M88.0002 79.2002H79.2002V88.0002H88.0002V79.2002Z" fill="white"/>
<path d="M96.8 79.2002H88V88.0002H96.8V79.2002Z" fill="white"/>
<path d="M105.6 79.2002H96.7998V88.0002H105.6V79.2002Z" fill="white"/>
<path d="M114.4 79.2002H105.6V88.0002H114.4V79.2002Z" fill="white"/>
<path d="M149.6 79.2002H140.8V88.0002H149.6V79.2002Z" fill="white"/>
<path d="M167.2 79.2002H158.4V88.0002H167.2V79.2002Z" fill="white"/>
<path d="M176 79.2002H167.2V88.0002H176V79.2002Z" fill="white"/>
<path d="M184.8 79.2002H176V88.0002H184.8V79.2002Z" fill="white"/>
<path d="M193.6 79.2002H184.8V88.0002H193.6V79.2002Z" fill="white"/>
<path d="M211.2 79.2002H202.4V88.0002H211.2V79.2002Z" fill="white"/>
<path d="M220 79.2002H211.2V88.0002H220V79.2002Z" fill="white"/>
<path d="M8.8 88H0V96.8H8.8V88Z" fill="white"/>
<path d="M35.2004 88H26.4004V96.8H35.2004V88Z" fill="white"/>
<path d="M44.0002 88H35.2002V96.8H44.0002V88Z" fill="white"/>
<path d="M61.5998 88H52.7998V96.8H61.5998V88Z" fill="white"/>
<path d="M70.3996 88H61.5996V96.8H70.3996V88Z" fill="white"/>
<path d="M79.2004 88H70.4004V96.8H79.2004V88Z" fill="white"/>
<path d="M88.0002 88H79.2002V96.8H88.0002V88Z" fill="white"/>
<path d="M96.8 88H88V96.8H96.8V88Z" fill="white"/>
<path d="M114.4 88H105.6V96.8H114.4V88Z" fill="white"/>
<path d="M123.2 88H114.4V96.8H123.2V88Z" fill="white"/>
<path d="M132 88H123.2V96.8H132V88Z" fill="white"/>
<path d="M167.2 88H158.4V96.8H167.2V88Z" fill="white"/>
<path d="M202.4 88H193.6V96.8H202.4V88Z" fill="white"/>
<path d="M211.2 88H202.4V96.8H211.2V88Z" fill="white"/>
<path d="M26.3996 96.7998H17.5996V105.6H26.3996V96.7998Z" fill="white"/>
<path d="M88.0002 96.7998H79.2002V105.6H88.0002V96.7998Z" fill="white"/>
<path d="M96.8 96.7998H88V105.6H96.8V96.7998Z" fill="white"/>
<path d="M105.6 96.7998H96.7998V105.6H105.6V96.7998Z" fill="white"/>
<path d="M114.4 96.7998H105.6V105.6H114.4V96.7998Z" fill="white"/>
<path d="M123.2 96.7998H114.4V105.6H123.2V96.7998Z" fill="white"/>
<path d="M132 96.7998H123.2V105.6H132V96.7998Z" fill="white"/>
<path d="M149.6 96.7998H140.8V105.6H149.6V96.7998Z" fill="white"/>
<path d="M158.4 96.7998H149.6V105.6H158.4V96.7998Z" fill="white"/>
<path d="M167.2 96.7998H158.4V105.6H167.2V96.7998Z" fill="white"/>
<path d="M193.6 96.7998H184.8V105.6H193.6V96.7998Z" fill="white"/>
<path d="M211.2 96.7998H202.4V105.6H211.2V96.7998Z" fill="white"/>
<path d="M8.8 105.6H0V114.4H8.8V105.6Z" fill="white"/>
<path d="M17.5998 105.6H8.7998V114.4H17.5998V105.6Z" fill="white"/>
<path d="M44.0002 105.6H35.2002V114.4H44.0002V105.6Z" fill="white"/>
<path d="M52.8 105.6H44V114.4H52.8V105.6Z" fill="white"/>
<path d="M61.5998 105.6H52.7998V114.4H61.5998V105.6Z" fill="white"/>
<path d="M70.3996 105.6H61.5996V114.4H70.3996V105.6Z" fill="white"/>
<path d="M79.2004 105.6H70.4004V114.4H79.2004V105.6Z" fill="white"/>
<path d="M88.0002 105.6H79.2002V114.4H88.0002V105.6Z" fill="white"/>
<path d="M105.6 105.6H96.7998V114.4H105.6V105.6Z" fill="white"/>
<path d="M114.4 105.6H105.6V114.4H114.4V105.6Z" fill="white"/>
<path d="M132 105.6H123.2V114.4H132V105.6Z" fill="white"/>
<path d="M158.4 105.6H149.6V114.4H158.4V105.6Z" fill="white"/>
<path d="M193.6 105.6H184.8V114.4H193.6V105.6Z" fill="white"/>
<path d="M211.2 105.6H202.4V114.4H211.2V105.6Z" fill="white"/>
<path d="M220 105.6H211.2V114.4H220V105.6Z" fill="white"/>
<path d="M8.8 114.4H0V123.2H8.8V114.4Z" fill="white"/>
<path d="M17.5998 114.4H8.7998V123.2H17.5998V114.4Z" fill="white"/>
<path d="M35.2004 114.4H26.4004V123.2H35.2004V114.4Z" fill="white"/>
<path d="M114.4 114.4H105.6V123.2H114.4V114.4Z" fill="white"/>
<path d="M132 114.4H123.2V123.2H132V114.4Z" fill="white"/>
<path d="M149.6 114.4H140.8V123.2H149.6V114.4Z" fill="white"/>
<path d="M167.2 114.4H158.4V123.2H167.2V114.4Z" fill="white"/>
<path d="M193.6 114.4H184.8V123.2H193.6V114.4Z" fill="white"/>
<path d="M211.2 114.4H202.4V123.2H211.2V114.4Z" fill="white"/>
<path d="M26.3996 123.2H17.5996V132H26.3996V123.2Z" fill="white"/>
<path d="M35.2004 123.2H26.4004V132H35.2004V123.2Z" fill="white"/>
<path d="M61.5998 123.2H52.7998V132H61.5998V123.2Z" fill="white"/>
<path d="M88.0002 123.2H79.2002V132H88.0002V123.2Z" fill="white"/>
<path d="M114.4 123.2H105.6V132H114.4V123.2Z" fill="white"/>
<path d="M149.6 123.2H140.8V132H149.6V123.2Z" fill="white"/>
<path d="M158.4 123.2H149.6V132H158.4V123.2Z" fill="white"/>
<path d="M184.8 123.2H176V132H184.8V123.2Z" fill="white"/>
<path d="M202.4 123.2H193.6V132H202.4V123.2Z" fill="white"/>
<path d="M35.2004 132H26.4004V140.8H35.2004V132Z" fill="white"/>
<path d="M44.0002 132H35.2002V140.8H44.0002V132Z" fill="white"/>
<path d="M52.8 132H44V140.8H52.8V132Z" fill="white"/>
<path d="M88.0002 132H79.2002V140.8H88.0002V132Z" fill="white"/>
<path d="M96.8 132H88V140.8H96.8V132Z" fill="white"/>
<path d="M105.6 132H96.7998V140.8H105.6V132Z" fill="white"/>
<path d="M114.4 132H105.6V140.8H114.4V132Z" fill="white"/>
<path d="M123.2 132H114.4V140.8H123.2V132Z" fill="white"/>
<path d="M176 132H167.2V140.8H176V132Z" fill="white"/>
<path d="M202.4 132H193.6V140.8H202.4V132Z" fill="white"/>
<path d="M211.2 132H202.4V140.8H211.2V132Z" fill="white"/>
<path d="M8.8 140.8H0V149.6H8.8V140.8Z" fill="white"/>
<path d="M17.5998 140.8H8.7998V149.6H17.5998V140.8Z" fill="white"/>
<path d="M26.3996 140.8H17.5996V149.6H26.3996V140.8Z" fill="white"/>
<path d="M44.0002 140.8H35.2002V149.6H44.0002V140.8Z" fill="white"/>
<path d="M52.8 140.8H44V149.6H52.8V140.8Z" fill="white"/>
<path d="M61.5998 140.8H52.7998V149.6H61.5998V140.8Z" fill="white"/>
<path d="M79.2004 140.8H70.4004V149.6H79.2004V140.8Z" fill="white"/>
<path d="M88.0002 140.8H79.2002V149.6H88.0002V140.8Z" fill="white"/>
<path d="M96.8 140.8H88V149.6H96.8V140.8Z" fill="white"/>
<path d="M105.6 140.8H96.7998V149.6H105.6V140.8Z" fill="white"/>
<path d="M123.2 140.8H114.4V149.6H123.2V140.8Z" fill="white"/>
<path d="M132 140.8H123.2V149.6H132V140.8Z" fill="white"/>
<path d="M140.8 140.8H132V149.6H140.8V140.8Z" fill="white"/>
<path d="M149.6 140.8H140.8V149.6H149.6V140.8Z" fill="white"/>
<path d="M158.4 140.8H149.6V149.6H158.4V140.8Z" fill="white"/>
<path d="M167.2 140.8H158.4V149.6H167.2V140.8Z" fill="white"/>
<path d="M176 140.8H167.2V149.6H176V140.8Z" fill="white"/>
<path d="M184.8 140.8H176V149.6H184.8V140.8Z" fill="white"/>
<path d="M193.6 140.8H184.8V149.6H193.6V140.8Z" fill="white"/>
<path d="M202.4 140.8H193.6V149.6H202.4V140.8Z" fill="white"/>
<path d="M220 140.8H211.2V149.6H220V140.8Z" fill="white"/>
<path d="M79.2004 149.6H70.4004V158.4H79.2004V149.6Z" fill="white"/>
<path d="M96.8 149.6H88V158.4H96.8V149.6Z" fill="white"/>
<path d="M114.4 149.6H105.6V158.4H114.4V149.6Z" fill="white"/>
<path d="M123.2 149.6H114.4V158.4H123.2V149.6Z" fill="white"/>
<path d="M132 149.6H123.2V158.4H132V149.6Z" fill="white"/>
<path d="M140.8 149.6H132V158.4H140.8V149.6Z" fill="white"/>
<path d="M149.6 149.6H140.8V158.4H149.6V149.6Z" fill="white"/>
<path d="M184.8 149.6H176V158.4H184.8V149.6Z" fill="white"/>
<path d="M193.6 149.6H184.8V158.4H193.6V149.6Z" fill="white"/>
<path d="M220 149.6H211.2V158.4H220V149.6Z" fill="white"/>
<path d="M8.8 158.4H0V167.2H8.8V158.4Z" fill="white"/>
<path d="M17.5998 158.4H8.7998V167.2H17.5998V158.4Z" fill="white"/>
<path d="M26.3996 158.4H17.5996V167.2H26.3996V158.4Z" fill="white"/>
<path d="M35.2004 158.4H26.4004V167.2H35.2004V158.4Z" fill="white"/>
<path d="M44.0002 158.4H35.2002V167.2H44.0002V158.4Z" fill="white"/>
<path d="M52.8 158.4H44V167.2H52.8V158.4Z" fill="white"/>
<path d="M61.5998 158.4H52.7998V167.2H61.5998V158.4Z" fill="white"/>
<path d="M79.2004 158.4H70.4004V167.2H79.2004V158.4Z" fill="white"/>
<path d="M96.8 158.4H88V167.2H96.8V158.4Z" fill="white"/>
<path d="M105.6 158.4H96.7998V167.2H105.6V158.4Z" fill="white"/>
<path d="M114.4 158.4H105.6V167.2H114.4V158.4Z" fill="white"/>
<path d="M123.2 158.4H114.4V167.2H123.2V158.4Z" fill="white"/>
<path d="M140.8 158.4H132V167.2H140.8V158.4Z" fill="white"/>
<path d="M149.6 158.4H140.8V167.2H149.6V158.4Z" fill="white"/>
<path d="M167.2 158.4H158.4V167.2H167.2V158.4Z" fill="white"/>
<path d="M184.8 158.4H176V167.2H184.8V158.4Z" fill="white"/>
<path d="M193.6 158.4H184.8V167.2H193.6V158.4Z" fill="white"/>
<path d="M202.4 158.4H193.6V167.2H202.4V158.4Z" fill="white"/>
<path d="M8.8 167.2H0V176H8.8V167.2Z" fill="white"/>
<path d="M61.5998 167.2H52.7998V176H61.5998V167.2Z" fill="white"/>
<path d="M79.2004 167.2H70.4004V176H79.2004V167.2Z" fill="white"/>
<path d="M114.4 167.2H105.6V176H114.4V167.2Z" fill="white"/>
<path d="M132 167.2H123.2V176H132V167.2Z" fill="white"/>
<path d="M140.8 167.2H132V176H140.8V167.2Z" fill="white"/>
<path d="M149.6 167.2H140.8V176H149.6V167.2Z" fill="white"/>
<path d="M184.8 167.2H176V176H184.8V167.2Z" fill="white"/>
<path d="M193.6 167.2H184.8V176H193.6V167.2Z" fill="white"/>
<path d="M202.4 167.2H193.6V176H202.4V167.2Z" fill="white"/>
<path d="M211.2 167.2H202.4V176H211.2V167.2Z" fill="white"/>
<path d="M220 167.2H211.2V176H220V167.2Z" fill="white"/>
<path d="M8.8 176H0V184.8H8.8V176Z" fill="white"/>
<path d="M26.3996 176H17.5996V184.8H26.3996V176Z" fill="white"/>
<path d="M35.2004 176H26.4004V184.8H35.2004V176Z" fill="white"/>
<path d="M44.0002 176H35.2002V184.8H44.0002V176Z" fill="white"/>
<path d="M61.5998 176H52.7998V184.8H61.5998V176Z" fill="white"/>
<path d="M79.2004 176H70.4004V184.8H79.2004V176Z" fill="white"/>
<path d="M88.0002 176H79.2002V184.8H88.0002V176Z" fill="white"/>
<path d="M105.6 176H96.7998V184.8H105.6V176Z" fill="white"/>
<path d="M123.2 176H114.4V184.8H123.2V176Z" fill="white"/>
<path d="M149.6 176H140.8V184.8H149.6V176Z" fill="white"/>
<path d="M158.4 176H149.6V184.8H158.4V176Z" fill="white"/>
<path d="M167.2 176H158.4V184.8H167.2V176Z" fill="white"/>
<path d="M176 176H167.2V184.8H176V176Z" fill="white"/>
<path d="M184.8 176H176V184.8H184.8V176Z" fill="white"/>
<path d="M193.6 176H184.8V184.8H193.6V176Z" fill="white"/>
<path d="M8.8 184.8H0V193.6H8.8V184.8Z" fill="white"/>
<path d="M26.3996 184.8H17.5996V193.6H26.3996V184.8Z" fill="white"/>
<path d="M35.2004 184.8H26.4004V193.6H35.2004V184.8Z" fill="white"/>
<path d="M44.0002 184.8H35.2002V193.6H44.0002V184.8Z" fill="white"/>
<path d="M61.5998 184.8H52.7998V193.6H61.5998V184.8Z" fill="white"/>
<path d="M88.0002 184.8H79.2002V193.6H88.0002V184.8Z" fill="white"/>
<path d="M96.8 184.8H88V193.6H96.8V184.8Z" fill="white"/>
<path d="M123.2 184.8H114.4V193.6H123.2V184.8Z" fill="white"/>
<path d="M132 184.8H123.2V193.6H132V184.8Z" fill="white"/>
<path d="M140.8 184.8H132V193.6H140.8V184.8Z" fill="white"/>
<path d="M167.2 184.8H158.4V193.6H167.2V184.8Z" fill="white"/>
<path d="M184.8 184.8H176V193.6H184.8V184.8Z" fill="white"/>
<path d="M211.2 184.8H202.4V193.6H211.2V184.8Z" fill="white"/>
<path d="M220 184.8H211.2V193.6H220V184.8Z" fill="white"/>
<path d="M8.8 193.6H0V202.4H8.8V193.6Z" fill="white"/>
<path d="M26.3996 193.6H17.5996V202.4H26.3996V193.6Z" fill="white"/>
<path d="M35.2004 193.6H26.4004V202.4H35.2004V193.6Z" fill="white"/>
<path d="M44.0002 193.6H35.2002V202.4H44.0002V193.6Z" fill="white"/>
<path d="M61.5998 193.6H52.7998V202.4H61.5998V193.6Z" fill="white"/>
<path d="M88.0002 193.6H79.2002V202.4H88.0002V193.6Z" fill="white"/>
<path d="M132 193.6H123.2V202.4H132V193.6Z" fill="white"/>
<path d="M140.8 193.6H132V202.4H140.8V193.6Z" fill="white"/>
<path d="M149.6 193.6H140.8V202.4H149.6V193.6Z" fill="white"/>
<path d="M184.8 193.6H176V202.4H184.8V193.6Z" fill="white"/>
<path d="M193.6 193.6H184.8V202.4H193.6V193.6Z" fill="white"/>
<path d="M211.2 193.6H202.4V202.4H211.2V193.6Z" fill="white"/>
<path d="M8.8 202.4H0V211.2H8.8V202.4Z" fill="white"/>
<path d="M61.5998 202.4H52.7998V211.2H61.5998V202.4Z" fill="white"/>
<path d="M96.8 202.4H88V211.2H96.8V202.4Z" fill="white"/>
<path d="M105.6 202.4H96.7998V211.2H105.6V202.4Z" fill="white"/>
<path d="M123.2 202.4H114.4V211.2H123.2V202.4Z" fill="white"/>
<path d="M132 202.4H123.2V211.2H132V202.4Z" fill="white"/>
<path d="M140.8 202.4H132V211.2H140.8V202.4Z" fill="white"/>
<path d="M149.6 202.4H140.8V211.2H149.6V202.4Z" fill="white"/>
<path d="M167.2 202.4H158.4V211.2H167.2V202.4Z" fill="white"/>
<path d="M184.8 202.4H176V211.2H184.8V202.4Z" fill="white"/>
<path d="M220 202.4H211.2V211.2H220V202.4Z" fill="white"/>
<path d="M8.8 211.2H0V216C0 218.209 1.79086 220 4 220H8.8V211.2Z" fill="white"/>
<path d="M17.5998 211.2H8.7998V220H17.5998V211.2Z" fill="white"/>
<path d="M26.3996 211.2H17.5996V220H26.3996V211.2Z" fill="white"/>
<path d="M35.2004 211.2H26.4004V220H35.2004V211.2Z" fill="white"/>
<path d="M44.0002 211.2H35.2002V220H44.0002V211.2Z" fill="white"/>
<path d="M52.8 211.2H44V220H52.8V211.2Z" fill="white"/>
<path d="M61.5998 211.2H52.7998V220H61.5998V211.2Z" fill="white"/>
<path d="M88.0002 211.2H79.2002V220H88.0002V211.2Z" fill="white"/>
<path d="M96.8 211.2H88V220H96.8V211.2Z" fill="white"/>
<path d="M114.4 211.2H105.6V220H114.4V211.2Z" fill="white"/>
<path d="M123.2 211.2H114.4V220H123.2V211.2Z" fill="white"/>
<path d="M140.8 211.2H132V220H140.8V211.2Z" fill="white"/>
<path d="M149.6 211.2H140.8V220H149.6V211.2Z" fill="white"/>
<path d="M184.8 211.2H176V220H184.8V211.2Z" fill="white"/>
<path d="M202.4 211.2H193.6V220H202.4V211.2Z" fill="white"/>
<path d="M211.2 211.2H202.4V220H211.2V211.2Z" fill="white"/>
<path d="M220 211.2H211.2V220H216C218.209 220 220 218.209 220 216V211.2Z" fill="white"/>
</g>
<defs>
<clipPath id="clip0_344_176033">
<rect width="220" height="220" fill="white"/>
</clipPath>
</defs>
</svg>
