<svg width="24" height="24" viewBox="0 0 24 24" fill="none" xmlns="http://www.w3.org/2000/svg"><g clip-path="url(#clip0_344_174610)"><path fill-rule="evenodd" clip-rule="evenodd" d="M8 9H4C3.448 9 3 8.552 3 8V4C3 3.448 3.448 3 4 3H8C8.552 3 9 3.448 9 4V8C9 8.552 8.552 9 8 9Z" stroke="white" stroke-width="1.5" stroke-linecap="round" stroke-linejoin="round"/><path fill-rule="evenodd" clip-rule="evenodd" d="M8 21H4C3.448 21 3 20.552 3 20V16C3 15.448 3.448 15 4 15H8C8.552 15 9 15.448 9 16V20C9 20.552 8.552 21 8 21Z" stroke="white" stroke-width="1.5" stroke-linecap="round" stroke-linejoin="round"/><path fill-rule="evenodd" clip-rule="evenodd" d="M20 9H16C15.448 9 15 8.552 15 8V4C15 3.448 15.448 3 16 3H20C20.552 3 21 3.448 21 4V8C21 8.552 20.552 9 20 9Z" stroke="white" stroke-width="1.5" stroke-linecap="round" stroke-linejoin="round"/><path d="M7 12H9" stroke="white" stroke-width="1.5" stroke-linecap="round" stroke-linejoin="round"/><path d="M12 5V3" stroke="white" stroke-width="1.5" stroke-linecap="round" stroke-linejoin="round"/><path d="M16 12H13C12.448 12 12 11.552 12 11V9" stroke="white" stroke-width="1.5" stroke-linecap="round" stroke-linejoin="round"/><path d="M4 12H3" stroke="white" stroke-width="1.5" stroke-linecap="round" stroke-linejoin="round"/><path d="M15 18H13C12.448 18 12 18.448 12 19V21" stroke="white" stroke-width="1.5" stroke-linecap="round" stroke-linejoin="round"/><path d="M12 15H18" stroke="white" stroke-width="1.5" stroke-linecap="round" stroke-linejoin="round"/><path d="M21 15V20C21 20.552 20.552 21 20 21H15" stroke="white" stroke-width="1.5" stroke-linecap="round" stroke-linejoin="round"/><path d="M6.00012 5.99023C5.99712 5.99023 5.99512 5.99223 5.99512 5.99523C5.99512 5.99823 5.99712 6.00023 6.00012 6.00023C6.00312 6.00023 6.00512 5.99823 6.00512 5.99523C6.00512 5.99223 6.00312 5.99023 6.00012 5.99023Z" stroke="white" stroke-width="1.5" stroke-linecap="round" stroke-linejoin="round"/><path d="M17.9952 5.99512C17.9922 5.99512 17.9902 5.99712 17.9902 6.00012C17.9902 6.00312 17.9922 6.00512 17.9952 6.00512C17.9982 6.00512 18.0002 6.00312 18.0002 6.00012C18.0002 5.99712 17.9982 5.99512 17.9952 5.99512Z" stroke="white" stroke-width="1.5" stroke-linecap="round" stroke-linejoin="round"/><path d="M18.9952 11.9951C18.9922 11.9951 18.9902 11.9971 18.9902 12.0001C18.9902 12.0031 18.9922 12.0051 18.9952 12.0051C18.9982 12.0051 19.0002 12.0031 19.0002 12.0001C19.0002 11.9971 18.9982 11.9951 18.9952 11.9951Z" stroke="white" stroke-width="1.5" stroke-linecap="round" stroke-linejoin="round"/><path d="M17.9952 17.9951C17.9922 17.9951 17.9902 17.9971 17.9902 18.0001C17.9902 18.0031 17.9922 18.0051 17.9952 18.0051C17.9982 18.0051 18.0002 18.0031 18.0002 18.0001C18.0002 17.9971 17.9982 17.9951 17.9952 17.9951Z" stroke="white" stroke-width="1.5" stroke-linecap="round" stroke-linejoin="round"/><path d="M6.005 17.9951C6.002 17.9951 6 17.9971 6 18.0001C6 18.0031 6.002 18.0051 6.005 18.0051C6.008 18.0051 6.01 18.0031 6.01 18.0001C6.01 17.9971 6.008 17.9951 6.005 17.9951Z" stroke="white" stroke-width="1.5" stroke-linecap="round" stroke-linejoin="round"/></g><defs><clipPath id="clip0_344_174610"><rect width="24" height="24" fill="white"/></clipPath></defs></svg>
