<svg width="44" height="44" viewBox="0 0 44 44" fill="none" xmlns="http://www.w3.org/2000/svg"><circle cx="22" cy="22" r="22" fill="#313131"/><path fill-rule="evenodd" clip-rule="evenodd" d="M22 13.75C22.4142 13.75 22.75 14.0858 22.75 14.5V24.3555L25.6359 21.4697C25.9288 21.1768 26.4036 21.1768 26.6965 21.4697C26.9894 21.7626 26.9894 22.2374 26.6965 22.5303L22.5459 26.6809C22.4855 26.745 22.414 26.7984 22.3345 26.8381C22.2312 26.8899 22.1163 26.9175 21.9987 26.9175C21.7997 26.9175 21.609 26.8385 21.4683 26.6978L17.3016 22.5303C17.0088 22.2374 17.0088 21.7625 17.3018 21.4696C17.5947 21.1768 18.0696 21.1768 18.3624 21.4697L21.25 24.3579V14.5C21.25 14.0858 21.5858 13.75 22 13.75ZM15.333 28.75C14.9188 28.75 14.583 29.0858 14.583 29.5C14.583 29.9142 14.9188 30.25 15.333 30.25H28.6663C29.0806 30.25 29.4163 29.9142 29.4163 29.5C29.4163 29.0858 29.0806 28.75 28.6663 28.75H15.333Z" fill="url(#paint0_linear_344_174456)"/><defs><linearGradient id="paint0_linear_344_174456" x1="7.16634" y1="-26.125" x2="26.2339" y2="39.5332" gradientUnits="userSpaceOnUse"><stop stop-color="white"/><stop offset="1" stop-color="white" stop-opacity="0"/></linearGradient></defs></svg>
