<svg width="24" height="24" viewBox="0 0 24 24" fill="none" xmlns="http://www.w3.org/2000/svg"><g clip-path="url(#clip0_180_13422)"><path fill-rule="evenodd" clip-rule="evenodd" d="M13.75 3H7C6.20435 3 5.44129 3.31607 4.87868 3.87868C4.31607 4.44129 4 5.20435 4 6V18C4 18.7956 4.31607 19.5587 4.87868 20.1213C5.44129 20.6839 6.20435 21 7 21H17C17.7956 21 18.5587 20.6839 19.1213 20.1213C19.6839 19.5587 20 18.7956 20 18V9.25H16.5C15.7707 9.25 15.0712 8.96027 14.5555 8.44454C14.0397 7.92882 13.75 7.22935 13.75 6.5V3ZM19.9349 7.75C19.8155 7.18622 19.5351 6.66408 19.1213 6.25035L16.7496 3.87868C16.3359 3.46495 15.8138 3.18454 15.25 3.06511V6.5C15.25 6.83152 15.3817 7.14946 15.6161 7.38388C15.8505 7.6183 16.1685 7.75 16.5 7.75H19.9349Z" fill="url(#paint0_linear_180_13422)"/></g><defs><linearGradient id="paint0_linear_180_13422" x1="-4" y1="-40.5" x2="17" y2="31" gradientUnits="userSpaceOnUse"><stop stop-color="white"/><stop offset="1" stop-color="white" stop-opacity="0"/></linearGradient><clipPath id="clip0_180_13422"><rect width="24" height="24" fill="white"/></clipPath></defs></svg>
