<svg width="24" height="24" viewBox="0 0 24 24" fill="none" xmlns="http://www.w3.org/2000/svg"><g clip-path="url(#clip0_180_13400)"><path d="M7.73304 20.829C7.48459 20.9587 7.20477 21.0162 6.92531 20.995C6.64585 20.9737 6.37793 20.8746 6.15192 20.7089C5.9259 20.5432 5.75085 20.3174 5.64659 20.0573C5.54233 19.7971 5.51304 19.513 5.56204 19.237L6.37104 14.6L2.96504 11.336C2.76101 11.1414 2.61595 10.8933 2.54649 10.6201C2.47702 10.3468 2.48597 10.0596 2.5723 9.79117C2.65863 9.52279 2.81885 9.28416 3.03459 9.10267C3.25032 8.92117 3.51284 8.80414 3.79204 8.76501L8.52104 8.08901L10.656 3.83001C10.7801 3.57961 10.9717 3.36886 11.2092 3.22151C11.4467 3.07417 11.7206 2.99609 12 2.99609C12.2795 2.99609 12.5534 3.07417 12.7909 3.22151C13.0284 3.36886 13.2199 3.57961 13.344 3.83001L15.479 8.08901L20.208 8.76501C20.4872 8.80414 20.7498 8.92117 20.9655 9.10267C21.1812 9.28416 21.3414 9.52279 21.4278 9.79117C21.5141 10.0596 21.5231 10.3468 21.4536 10.6201C21.3841 10.8933 21.2391 11.1414 21.035 11.336L17.629 14.6L18.438 19.238C18.487 19.514 18.4578 19.7981 18.3535 20.0583C18.2492 20.3184 18.0742 20.5442 17.8482 20.7099C17.6222 20.8756 17.3542 20.9747 17.0748 20.996C16.7953 21.0172 16.5155 20.9597 16.267 20.83L12 18.625L7.73304 20.829Z" fill="url(#paint0_linear_180_13400)"/></g><defs><linearGradient id="paint0_linear_180_13400" x1="-6.99955" y1="-40.514" x2="11.111" y2="32.6914" gradientUnits="userSpaceOnUse"><stop stop-color="white"/><stop offset="1" stop-color="white" stop-opacity="0"/></linearGradient><clipPath id="clip0_180_13400"><rect width="24" height="24" fill="white"/></clipPath></defs></svg>
