<svg width="100" height="100" viewBox="0 0 100 100" fill="none" xmlns="http://www.w3.org/2000/svg"><path opacity="0.75" d="M50 74C36.746 74 26 63.254 26 50C26 36.746 36.746 26 50 26C63.254 26 74 36.746 74 50C74 63.254 63.254 74 50 74" stroke="#0066E6" stroke-width="3" stroke-linecap="round" stroke-linejoin="round"/><path d="M42.5 56.25L56.25 44.375L48.75 38.75V61.25L56.25 55.625L42.5 43.75" stroke="#0066E6" stroke-width="3" stroke-linecap="round" stroke-linejoin="round"/><path d="M50 86C30.119 86 14 69.881 14 50C14 30.119 30.119 14 50 14C69.881 14 86 30.119 86 50C86 69.881 69.881 86 50 86" stroke="#0066E5" stroke-opacity="0.5" stroke-width="3" stroke-linecap="round" stroke-linejoin="round"/><path d="M50 98C23.492 98 2 76.508 2 50C2 23.492 23.492 2 50 2C76.508 2 98 23.492 98 50C98 76.508 76.508 98 50 98" stroke="#0066E5" stroke-opacity="0.25" stroke-width="3" stroke-linecap="round" stroke-linejoin="round"/></svg>
