<svg width="24" height="24" viewBox="0 0 24 24" fill="none" xmlns="http://www.w3.org/2000/svg"><g clip-path="url(#clip0_180_15808)"><path fill-rule="evenodd" clip-rule="evenodd" d="M14.331 20H9.66804C8.81687 19.9999 7.98073 19.7757 7.24366 19.3501C6.50658 18.9244 5.89453 18.3122 5.46904 17.575L3.65004 14.424C3.22405 13.6872 2.99976 12.8511 2.99976 12C2.99976 11.1489 3.22405 10.3128 3.65004 9.576L5.46904 6.424C5.89475 5.68686 6.507 5.07477 7.24426 4.64927C7.98152 4.22376 8.8178 3.99984 9.66904 4H14.331C15.1821 4.00021 16.0181 4.22431 16.7551 4.64978C17.4921 5.07526 18.1043 5.68714 18.53 6.424L20.35 9.575C20.776 10.3122 21.0003 11.1486 21.0003 12C21.0003 12.8514 20.776 13.6878 20.35 14.425L18.531 17.576C18.1053 18.3131 17.493 18.9251 16.7557 19.3506C16.0185 19.7761 15.1823 20.0001 14.331 20ZM15.47 11.9998C15.47 13.8599 13.9165 15.3678 12 15.3678C10.0836 15.3678 8.53003 13.8599 8.53003 11.9998C8.53003 10.1397 10.0836 8.63184 12 8.63184C13.9165 8.63184 15.47 10.1397 15.47 11.9998Z" fill="#A03BEF"/></g><defs><clipPath id="clip0_180_15808"><rect width="24" height="24" fill="white"/></clipPath></defs></svg>
