<?xml version="1.0" standalone="no"?><!DOCTYPE svg PUBLIC "-//W3C//DTD SVG 20010904//EN""http://www.w3.org/TR/2001/REC-SVG-20010904/DTD/svg10.dtd"><svg version="1.0" xmlns="http://www.w3.org/2000/svg" width="64.000000pt" height="64.000000pt" viewBox="0 0 64.000000 64.000000" preserveAspectRatio="xMidYMid meet"><g transform="translate(0.000000,64.000000) scale(0.100000,-0.100000)"fill="#000000" stroke="none"><path d="M223 616 c-93 -30 -181 -124 -203 -218 -35 -143 34 -289 170 -359 64-34 194 -34 262 -1 60 30 120 90 150 150 33 68 33 198 -1 262 -32 62 -86 117-146 147 -61 32 -168 40 -232 19z m183 -21 c27 -8 63 -26 79 -39 l30 -24 -34-36 c-19 -20 -40 -36 -46 -36 -6 0 -19 14 -28 30 -17 29 -21 30 -87 30 -66 0-70 -1 -87 -30 -19 -32 -33 -39 -33 -15 0 8 -4 15 -10 15 -5 0 -10 7 -10 15 09 -9 15 -25 15 -16 0 -25 -6 -25 -15 0 -8 -3 -15 -8 -15 -22 0 -32 -64 -30-191 3 -131 3 -133 27 -139 22 -5 23 -6 6 -20 -15 -13 -20 -11 -41 13 -27 32-54 115 -54 167 0 113 86 235 190 270 67 23 120 25 186 5z m155 -116 c26 -3849 -110 49 -159 0 -76 -28 -140 -89 -201 -61 -61 -125 -89 -201 -89 -52 0-130 26 -165 54 l-30 24 24 26 c24 25 25 26 210 28 l186 3 0 145 0 145 -34 3-33 3 23 25 c29 31 33 30 60 -7z m-164 -13 c28 -44 14 -62 -36 -45 -94 33-185 -58 -152 -153 10 -29 9 -34 -16 -60 -17 -18 -37 -28 -55 -28 l-28 0 0130 0 130 59 0 c56 0 61 2 78 30 16 28 22 30 73 30 52 0 56 -2 77 -34z m-224-3 c-7 -2 -21 -2 -30 0 -10 3 -4 5 12 5 17 0 24 -2 18 -5z m357 -153 l0 -130-167 0 -167 0 20 20 c19 19 22 20 53 4 97 -48 205 60 157 157 -16 31 -15 33 656 15 16 33 23 60 23 l38 0 0 -130z m-171 91 c22 -14 -3 -39 -33 -34 -33 7-70 -30 -63 -63 5 -30 -20 -55 -34 -33 -22 36 -1 101 42 125 28 15 68 18 88 5zm55 -63 c25 -72 -50 -147 -123 -122 -43 16 -33 39 17 39 53 0 76 24 67 71 -950 22 60 39 12z m-105 -14 c-13 -14 -25 -20 -27 -14 -5 15 17 40 36 40 12 010 -6 -9 -26z m51 -12 c0 -23 -19 -42 -42 -42 -24 0 -23 9 4 37 26 28 38 2938 5z"/><path d="M130 310 l0 -100 25 0 25 0 0 100 0 100 -25 0 -25 0 0 -100z m27 -42c-2 -24 -4 -5 -4 42 0 47 2 66 4 43 2 -24 2 -62 0 -85z"/><path d="M450 405 c0 -22 4 -25 35 -25 31 0 35 3 35 25 0 22 -4 25 -35 25 -310 -35 -3 -35 -25z m47 -1 c-3 -3 -12 -4 -19 -1 -8 3 -5 6 6 6 11 1 17 -2 13-5z"/></g></svg>
