<svg width="24" height="24" viewBox="0 0 24 24" fill="none" xmlns="http://www.w3.org/2000/svg"><g clip-path="url(#clip0_48_16090)"><path fill-rule="evenodd" clip-rule="evenodd" d="M19.3987 17.3987C19.0137 17.7837 18.4915 18 17.947 18H14.49V18.511C14.49 18.8379 14.4256 19.1617 14.3005 19.4637C14.1753 19.7658 13.9919 20.0402 13.7606 20.2713C13.5294 20.5025 13.2549 20.6858 12.9528 20.8108C12.6507 20.9358 12.327 21.0001 12 21C11.6731 21.0003 11.3494 20.9361 11.0473 20.8112C10.7452 20.6863 10.4707 20.503 10.2394 20.272C10.0082 20.0409 9.82475 19.7666 9.69959 19.4646C9.57443 19.1626 9.51001 18.8389 9.51001 18.512V18H6.053C5.50851 18 4.98632 17.7837 4.60131 17.3987C4.2163 17.0137 4 16.4915 4 15.947C4.00046 15.371 4.22916 14.8187 4.636 14.411L6 13.048V9C6 7.4087 6.63214 5.88258 7.75736 4.75736C8.88258 3.63214 10.4087 3 12 3C13.5913 3 15.1174 3.63214 16.2426 4.75736C17.3679 5.88258 18 7.4087 18 9V13.048L19.364 14.411C19.7708 14.8187 19.9995 15.371 20 15.947C20 16.4915 19.7837 17.0137 19.3987 17.3987Z" fill="url(#paint0_linear_48_16090)"/></g><defs><linearGradient id="paint0_linear_48_16090" x1="-4" y1="-40.5" x2="17" y2="31" gradientUnits="userSpaceOnUse"><stop stop-color="white"/><stop offset="1" stop-color="white" stop-opacity="0"/></linearGradient><clipPath id="clip0_48_16090"><rect width="24" height="24" fill="white"/></clipPath></defs></svg>
