<svg width="24" height="24" viewBox="0 0 24 24" fill="none" xmlns="http://www.w3.org/2000/svg"><g clip-path="url(#clip0_179_6510)"><path fill-rule="evenodd" clip-rule="evenodd" d="M4.5 20H7.99091C8.39991 19.9997 8.7921 19.8372 9.08151 19.5482L16.0067 12.623C15.9635 12.5964 15.9226 12.5643 15.8851 12.5268L11.4733 8.11502C11.4358 8.07748 11.4037 8.03655 11.377 7.99322L4.45177 14.9185C4.30851 15.0617 4.19487 15.2317 4.11735 15.4188C4.03983 15.606 3.99996 15.8065 4 16.0091V19.5C4 19.7761 4.22386 20 4.5 20ZM12.2874 7.08288C12.3307 7.10951 12.3716 7.1416 12.4092 7.17914L16.821 11.5909C16.8585 11.6284 16.8905 11.6693 16.9171 11.7126L18.5475 10.0823C18.6909 9.9391 18.8047 9.76904 18.8824 9.58182C18.96 9.39461 19 9.19392 19 8.99124C19 8.78856 18.96 8.58787 18.8824 8.40066C18.8047 8.21344 18.6909 8.04338 18.5475 7.9002L16.0998 5.45254C15.9566 5.30908 15.7866 5.19527 15.5993 5.11762C15.4121 5.03997 15.2114 5 15.0088 5C14.8061 5 14.6054 5.03997 14.4182 5.11762C14.231 5.19527 14.0609 5.30908 13.9177 5.45254L12.2874 7.08288Z" fill="url(#paint0_linear_179_6510)"/></g><defs><linearGradient id="paint0_linear_179_6510" x1="-3.5" y1="-31.25" x2="12.3192" y2="29.3432" gradientUnits="userSpaceOnUse"><stop stop-color="white"/><stop offset="1" stop-color="white" stop-opacity="0"/></linearGradient><clipPath id="clip0_179_6510"><rect width="24" height="24" fill="white"/></clipPath></defs></svg>
