<svg width="25" height="25" viewBox="0 0 25 25" fill="none" xmlns="http://www.w3.org/2000/svg"><path fill-rule="evenodd" clip-rule="evenodd" d="M22.7682 6.51374C22.8534 6.5802 22.9298 6.65748 22.9953 6.7435C23.0315 6.79102 23.0638 6.84053 23.0923 6.89162C23.1928 7.07168 23.2501 7.27915 23.2501 7.5V14.505C23.2501 15.1954 22.6905 15.755 22.0001 15.755C21.3098 15.755 20.7501 15.1954 20.7501 14.505V10.5176L12.8839 18.3839C12.3957 18.872 11.6043 18.872 11.1161 18.3839L7 14.2678L2.88388 18.3839C2.39573 18.872 1.60427 18.872 1.11612 18.3839C0.627961 17.8957 0.627961 17.1043 1.11612 16.6161L6.11612 11.6161C6.60427 11.128 7.39573 11.128 7.88388 11.6161L12 15.7322L18.9822 8.75H14.9951C14.3048 8.75 13.7451 8.19036 13.7451 7.5C13.7451 6.80964 14.3048 6.25 14.9951 6.25H22H22.0001C22.2897 6.25 22.5563 6.34846 22.7682 6.51374Z" fill="url(#paint0_linear_180_12549)"/><defs><linearGradient id="paint0_linear_180_12549" x1="-10.5001" y1="-23.9583" x2="-2.83839" y2="28.8664" gradientUnits="userSpaceOnUse"><stop stop-color="white"/><stop offset="1" stop-color="white" stop-opacity="0"/></linearGradient></defs></svg>
