<svg width="16" height="16" viewBox="0 0 16 16" fill="none" xmlns="http://www.w3.org/2000/svg">
<path d="M13.9325 10.6325H10.535C10.3361 10.6325 10.1453 10.7115 10.0047 10.8522C9.86402 10.9928 9.785 11.1836 9.785 11.3825C9.785 11.5814 9.86402 11.7722 10.0047 11.9128C10.1453 12.0535 10.3361 12.1325 10.535 12.1325H12.335C11.5077 12.9971 10.4408 13.5945 9.27137 13.848C8.10194 14.1016 6.88341 13.9997 5.77233 13.5554C4.66126 13.1112 3.7084 12.3448 3.03619 11.3549C2.36398 10.3649 2.00313 9.1966 2 8C2 7.80109 1.92098 7.61032 1.78033 7.46967C1.63968 7.32902 1.44891 7.25 1.25 7.25C1.05109 7.25 0.860322 7.32902 0.71967 7.46967C0.579018 7.61032 0.5 7.80109 0.5 8C0.503965 9.4646 0.936666 10.896 1.7447 12.1175C2.55274 13.3391 3.70075 14.2973 5.04706 14.8739C6.39336 15.4506 7.87905 15.6204 9.32076 15.3625C10.7625 15.1046 12.0971 14.4302 13.16 13.4225V14.75C13.16 14.9489 13.239 15.1397 13.3797 15.2803C13.5203 15.421 13.7111 15.5 13.91 15.5C14.1089 15.5 14.2997 15.421 14.4403 15.2803C14.581 15.1397 14.66 14.9489 14.66 14.75V11.375C14.6581 11.1812 14.5814 10.9957 14.4457 10.8573C14.3101 10.7189 14.1262 10.6383 13.9325 10.6325ZM8 0.5C6.07729 0.505484 4.23012 1.24919 2.84 2.5775V1.25C2.84 1.05109 2.76098 0.860322 2.62033 0.71967C2.47968 0.579018 2.28891 0.5 2.09 0.5C1.89109 0.5 1.70032 0.579018 1.55967 0.71967C1.41902 0.860322 1.34 1.05109 1.34 1.25V4.625C1.34 4.82391 1.41902 5.01468 1.55967 5.15533C1.70032 5.29598 1.89109 5.375 2.09 5.375H5.465C5.66391 5.375 5.85468 5.29598 5.99533 5.15533C6.13598 5.01468 6.215 4.82391 6.215 4.625C6.215 4.42609 6.13598 4.23532 5.99533 4.09467C5.85468 3.95402 5.66391 3.875 5.465 3.875H3.665C4.49185 3.0109 5.55807 2.41362 6.7268 2.15983C7.89553 1.90604 9.11344 2.00731 10.2242 2.45065C11.335 2.89398 12.2879 3.65916 12.9607 4.64795C13.6335 5.63675 13.9954 6.80404 14 8C14 8.19891 14.079 8.38968 14.2197 8.53033C14.3603 8.67098 14.5511 8.75 14.75 8.75C14.9489 8.75 15.1397 8.67098 15.2803 8.53033C15.421 8.38968 15.5 8.19891 15.5 8C15.5 7.01509 15.306 6.03982 14.9291 5.12987C14.5522 4.21993 13.9997 3.39314 13.3033 2.6967C12.6069 2.00026 11.7801 1.44781 10.8701 1.0709C9.96018 0.693993 8.98491 0.5 8 0.5Z" fill="white"/>
</svg>
