<svg width="25" height="24" viewBox="0 0 25 24" fill="none" xmlns="http://www.w3.org/2000/svg"><path fill-rule="evenodd" clip-rule="evenodd" d="M6.74529 3.25C4.84404 3.25 3.25 4.73716 3.25 6.63548C3.25 8.53507 4.84424 10.021 6.74529 10.021C8.64635 10.021 10.2406 8.53507 10.2406 6.63548C10.2406 4.73716 8.64655 3.25 6.74529 3.25ZM4.75 6.63548C4.75 5.62271 5.61417 4.75 6.74529 4.75C7.87642 4.75 8.74059 5.62271 8.74059 6.63548C8.74059 7.64913 7.87662 8.52096 6.74529 8.52096C5.61396 8.52096 4.75 7.64913 4.75 6.63548ZM13.7356 6.63595C13.7356 6.22174 14.0714 5.88595 14.4856 5.88595H21.3825C21.7967 5.88595 22.1325 6.22174 22.1325 6.63595C22.1325 7.05016 21.7967 7.38595 21.3825 7.38595H14.4856C14.0714 7.38595 13.7356 7.05016 13.7356 6.63595ZM16.6418 17.365C16.6418 16.3513 17.5058 15.4795 18.6371 15.4795C19.7685 15.4795 20.6324 16.3513 20.6324 17.365C20.6324 18.3777 19.7683 19.2505 18.6371 19.2505C17.506 19.2505 16.6418 18.3777 16.6418 17.365ZM18.6371 13.9795C16.7361 13.9795 15.1418 15.4654 15.1418 17.365C15.1418 19.2633 16.7359 20.7505 18.6371 20.7505C20.5384 20.7505 22.1324 19.2633 22.1324 17.365C22.1324 15.4654 20.5382 13.9795 18.6371 13.9795ZM4.00049 16.6145C3.58627 16.6145 3.25049 16.9503 3.25049 17.3645C3.25049 17.7787 3.58627 18.1145 4.00049 18.1145H10.8962C11.3105 18.1145 11.6462 17.7787 11.6462 17.3645C11.6462 16.9503 11.3105 16.6145 10.8962 16.6145H4.00049Z" fill="url(#paint0_linear_179_6498)"/><defs><linearGradient id="paint0_linear_179_6498" x1="-6.19124" y1="-39.0428" x2="11.0695" y2="32.2931" gradientUnits="userSpaceOnUse"><stop stop-color="white"/><stop offset="1" stop-color="white" stop-opacity="0"/></linearGradient></defs></svg>
