<svg width="20" height="20" viewBox="0 0 20 20" fill="none" xmlns="http://www.w3.org/2000/svg"><g clip-path="url(#clip0_180_12597)"><path fill-rule="evenodd" clip-rule="evenodd" d="M5.13291 5.51081C5.88405 4.70188 7.31202 4.69857 8.22944 5.54065C9.10453 6.42584 9.07233 7.76099 8.23964 8.53421C7.32222 9.3861 5.96982 9.38501 5.21624 8.57346C4.37319 7.66556 4.34289 6.36159 5.13291 5.51081ZM9.26032 4.45087C7.84399 3.13571 5.44645 2.96872 4.03372 4.49013C2.65707 5.97268 2.79344 8.16871 4.11705 9.59414C5.53014 11.1159 7.84441 10.9482 9.26032 9.6334C10.7579 8.24282 10.7285 5.91837 9.28031 4.47014C9.27377 4.46359 9.2671 4.45717 9.26032 4.45087ZM2.41675 15.8335C2.41675 14.4144 3.58096 13.2502 5.00008 13.2502H8.33341C9.75253 13.2502 10.9167 14.4144 10.9167 15.8335C10.9167 16.2477 11.2525 16.5835 11.6667 16.5835C12.081 16.5835 12.4167 16.2477 12.4167 15.8335C12.4167 13.586 10.581 11.7502 8.33341 11.7502H5.00008C2.75253 11.7502 0.916748 13.586 0.916748 15.8335C0.916748 16.2477 1.25253 16.5835 1.66675 16.5835C2.08096 16.5835 2.41675 16.2477 2.41675 15.8335ZM12.5835 11.6672C12.5835 11.253 12.9193 10.9172 13.3335 10.9172H15.8335C17.6644 10.9172 19.0835 12.3363 19.0835 14.1672C19.0835 14.5814 18.7477 14.9172 18.3335 14.9172C17.9193 14.9172 17.5835 14.5814 17.5835 14.1672C17.5835 13.1647 16.8359 12.4172 15.8335 12.4172H13.3335C12.9193 12.4172 12.5835 12.0814 12.5835 11.6672ZM13.697 6.11449C14.1358 5.67564 15.0023 5.63459 15.5669 6.12861C16.1091 6.68535 16.0634 7.50973 15.5816 7.94336C14.9776 8.48696 14.1313 8.45148 13.7241 7.99911C13.1805 7.3951 13.216 6.54877 13.6684 6.14163C13.6782 6.13284 13.6877 6.12379 13.697 6.11449ZM16.5851 5.02669C15.4874 4.0388 13.7095 3.99686 12.6504 5.03989C11.4523 6.13417 11.6566 7.94416 12.6092 9.00255C13.7021 10.2168 15.5224 10.0147 16.5851 9.0583C17.7658 7.99561 17.7235 6.16367 16.6137 5.05383C16.6044 5.04454 16.5948 5.03549 16.5851 5.02669Z" fill="url(#paint0_linear_180_12597)"/></g><defs><linearGradient id="paint0_linear_180_12597" x1="-8.16663" y1="-28.4388" x2="2.22782" y2="26.4511" gradientUnits="userSpaceOnUse"><stop stop-color="white"/><stop offset="1" stop-color="white" stop-opacity="0"/></linearGradient><clipPath id="clip0_180_12597"><rect width="20" height="20" fill="white"/></clipPath></defs></svg>
